<svg width="180" height="50" viewBox="0 0 180 50" xmlns="http://www.w3.org/2000/svg">
  <defs>
    <linearGradient id="shieldGrad" x1="0%" y1="100%" x2="100%" y2="0%">
      <stop offset="0%" style="stop-color:#1e3a8a;stop-opacity:1" />
      <stop offset="100%" style="stop-color:#10b981;stop-opacity:1" />
    </linearGradient>
  </defs>
  
  <!-- Shield Shape -->
  <path d="M 5 3 L 5 12 Q 5 16 8 17.5 L 14 19.5 Q 17 21 17 25 L 17 32 Q 17 36 14 37.5 L 8 39.5 Q 5 41 5 45 L 5 43 Q 5 39 2 37.5 L 0 36 Q 0 32 0 28 L 0 18 Q 0 14 2 12.5 L 5 12 Z" fill="url(#shieldGrad)" stroke="none"/>
  
  <!-- Bar Chart / U Shape (three bars) -->
  <rect x="4" y="28" width="2.5" height="6" fill="#1e3a8a" rx="0.5"/>
  <rect x="8" y="24" width="2.5" height="10" fill="#2563eb" rx="0.5"/>
  <rect x="12" y="20" width="2.5" height="14" fill="#10b981" rx="0.5"/>
  
  <!-- Upward Arrow -->
  <path d="M 11 20 Q 14 16 17 14.5 L 15.5 13 Q 14 14.5 11 18 Z" fill="#10b981"/>
  <path d="M 17 14.5 L 15.5 16 L 14 14.5 Z" fill="#10b981"/>
  
  <!-- Circuitry Elements (top left) -->
  <circle cx="2" cy="6" r="1" fill="#7dd3fc"/>
  <circle cx="4.5" cy="4.5" r="1" fill="#7dd3fc"/>
  <line x1="2" y1="6" x2="4.5" y2="4.5" stroke="#7dd3fc" stroke-width="0.3"/>
  
  <!-- Udyomix Text -->
  <text x="25" y="20" font-family="Arial, sans-serif" font-size="18" font-weight="bold" fill="#1e3a8a">Udyo</text>
  <text x="25" y="20" font-family="Arial, sans-serif" font-size="18" font-weight="bold" fill="#10b981">
    <tspan x="68" fill="#10b981">mix</tspan>
  </text>
  
  <!-- Tagline -->
  <text x="25" y="33" font-family="Arial, sans-serif" font-size="7" fill="#6b7280">Build Smarter. Succeed Together.</text>
</svg>
